<?xml version="1.0" standalone="no"?>
<!DOCTYPE svg PUBLIC "-//W3C//DTD SVG 20010904//EN"
 "http://www.w3.org/TR/2001/REC-SVG-20010904/DTD/svg10.dtd">
<svg version="1.0" xmlns="http://www.w3.org/2000/svg"
 width="1500.000000pt" height="1500.000000pt" viewBox="0 0 1500.000000 1500.000000"
 preserveAspectRatio="xMidYMid meet">

<g transform="translate(0.000000,1500.000000) scale(0.100000,-0.100000)"
fill="#000000" stroke="none">
<path d="M14012 11980 c-35 -21 -71 -87 -72 -129 0 -13 13 -65 29 -115 40
-124 61 -233 68 -345 l6 -93 -81 7 -80 7 -77 -57 c-151 -112 -212 -198 -235
-335 -31 -187 26 -399 172 -637 82 -135 174 -202 264 -191 28 3 29 5 32 59 3
52 0 60 -42 120 -137 193 -168 270 -168 411 1 122 22 179 76 205 52 24 78 8
120 -74 59 -119 94 -236 170 -583 l23 -105 49 3 c53 3 112 19 132 35 24 19 15
218 -22 438 -19 112 -37 256 -40 319 -4 63 -13 212 -21 330 -8 118 -19 307
-25 420 l-11 205 -32 33 c-38 39 -139 92 -176 92 -14 0 -41 -9 -59 -20z"/>
<path d="M10378 11578 c-32 -9 -39 -16 -62 -71 -36 -87 -51 -150 -81 -322 -47
-270 -95 -434 -180 -610 -52 -108 -142 -249 -158 -250 -14 0 -95 198 -157 385
-63 186 -107 380 -117 511 -7 88 -2 83 -90 92 -24 3 -43 3 -43 1 0 -2 10 -24
22 -48 l22 -45 -90 -93 c-184 -191 -246 -293 -373 -613 -81 -205 -141 -321
-163 -319 -9 1 -32 14 -51 30 -43 34 -75 109 -147 350 -62 208 -78 250 -134
361 -24 48 -65 156 -91 238 -73 231 -94 263 -186 280 -47 9 -115 -10 -145 -40
-17 -17 -24 -35 -24 -63 0 -64 144 -411 251 -603 49 -89 239 -511 325 -721 25
-62 50 -117 55 -122 8 -9 198 13 301 35 l46 10 16 72 c16 72 56 174 157 402
29 66 78 194 110 285 l56 164 21 -39 c11 -22 39 -85 62 -140 23 -55 59 -134
80 -175 21 -41 63 -135 94 -208 31 -73 68 -152 82 -175 34 -54 93 -127 103
-127 4 0 27 29 51 64 44 64 44 64 102 71 55 7 60 9 90 53 17 25 52 93 78 151
25 58 88 177 139 264 117 201 171 303 171 326 0 9 -19 48 -42 87 -55 89 -55
127 2 284 50 140 64 245 35 266 -21 16 -82 17 -137 2z"/>
<path d="M3777 11560 c-14 -11 -41 -42 -60 -68 l-35 -49 32 -58 c17 -33 46
-74 63 -93 27 -29 37 -33 60 -27 29 7 163 85 163 95 0 3 -20 17 -44 32 l-45
27 6 71 c7 83 2 90 -68 90 -31 0 -55 -6 -72 -20z"/>
<path d="M6430 11274 c-74 -12 -218 -34 -320 -48 -247 -35 -351 -60 -389 -95
-55 -51 -62 -145 -27 -346 8 -44 22 -154 31 -245 18 -188 38 -315 60 -386 8
-27 20 -106 25 -175 22 -279 70 -313 385 -275 168 21 744 57 900 56 162 0 169
4 235 118 l30 52 -35 55 c-22 35 -44 57 -60 61 -14 3 -110 4 -213 2 -197 -6
-192 -5 -379 -72 -96 -34 -235 -55 -419 -63 l-152 -6 -6 29 c-11 59 -25 150
-28 189 l-3 40 88 33 c86 32 199 54 442 87 66 8 134 20 152 26 49 16 66 51 66
136 0 40 -2 75 -4 78 -3 2 -27 -2 -54 -9 -34 -8 -63 -10 -90 -3 -63 14 -217 0
-364 -33 -74 -16 -156 -33 -182 -36 l-46 -6 -17 93 c-10 52 -20 126 -23 166
l-6 72 55 58 c39 41 57 69 62 95 6 33 11 39 44 47 82 22 165 32 331 41 95 6
183 16 195 22 29 15 86 61 86 69 0 4 -34 21 -75 39 -73 33 -75 34 -102 97 -17
40 -33 62 -43 62 -8 -1 -76 -12 -150 -25z"/>
<path d="M12489 11230 c-65 -69 -69 -116 -27 -320 23 -116 25 -273 3 -385 -8
-44 -38 -168 -66 -275 -42 -157 -57 -201 -79 -225 -55 -60 -65 -91 -65 -202 0
-56 4 -105 8 -109 10 -11 407 14 512 32 50 8 140 18 200 20 103 5 117 3 208
-25 55 -17 140 -36 190 -42 135 -16 370 4 389 34 13 20 9 145 -6 180 -7 18
-22 39 -32 48 -45 40 -260 59 -665 59 -270 0 -303 2 -363 20 -36 11 -67 24
-70 29 -3 4 11 59 30 122 76 248 86 299 91 499 6 226 -16 454 -49 508 -24 40
-84 72 -134 72 -30 0 -44 -7 -75 -40z"/>
<path d="M4815 11239 c-112 -11 -213 -63 -272 -139 -91 -116 -147 -229 -174
-348 -29 -130 -28 -394 2 -506 19 -72 147 -318 203 -393 30 -40 76 -103 102
-140 74 -106 154 -183 190 -183 4 0 4 31 0 69 l-7 69 168 56 c161 53 293 89
293 80 0 -3 -11 -27 -25 -54 -14 -27 -25 -54 -25 -60 0 -17 87 -52 123 -48 48
5 48 40 -2 113 l-39 59 61 66 c60 63 107 134 96 144 -3 3 -35 1 -71 -5 -67
-10 -67 -10 -122 25 l-56 35 -59 -78 c-116 -152 -179 -186 -290 -157 -109 28
-159 79 -242 251 -70 144 -100 255 -106 395 -6 126 7 199 52 297 30 67 106
148 170 181 47 25 58 27 170 25 133 -2 250 -21 321 -52 l46 -21 -4 58 c-7 98
-66 190 -149 232 -33 18 -79 24 -224 34 -27 2 -86 -1 -130 -5z"/>
<path d="M11351 11229 c-102 -12 -214 -43 -363 -101 -194 -75 -212 -97 -184
-226 19 -93 33 -305 46 -707 5 -165 14 -351 21 -412 l11 -113 64 0 c45 0 64 4
64 13 0 6 5 65 10 129 6 64 14 323 19 575 8 514 8 513 85 581 79 69 242 127
304 109 50 -15 128 -90 148 -142 l17 -45 -65 -72 c-90 -102 -141 -169 -178
-233 l-31 -55 -101 -31 -100 -31 7 -56 c10 -88 24 -101 147 -133 133 -35 177
-57 251 -128 76 -72 100 -122 137 -276 16 -69 41 -148 55 -175 22 -43 29 -50
55 -50 17 0 47 7 67 15 33 14 35 17 29 48 -4 17 -11 95 -17 172 -5 77 -14 159
-20 183 -26 119 -116 229 -247 302 -42 24 -96 54 -120 67 l-43 24 30 41 c109
147 165 211 201 227 39 16 39 16 45 86 10 107 -10 248 -45 321 -16 33 -37 68
-47 76 -23 20 -153 29 -252 17z"/>
<path d="M1880 11199 c-169 -18 -325 -43 -510 -79 -229 -45 -643 -146 -682
-166 -18 -10 -39 -39 -63 -90 -41 -85 -41 -85 33 -134 56 -37 79 -37 242 -5
157 30 344 55 418 55 l57 0 79 -172 c114 -247 119 -261 118 -348 0 -83 -44
-240 -87 -316 -49 -84 -141 -145 -270 -179 -105 -27 -104 -28 -184 88 -39 56
-82 115 -95 131 l-24 29 -26 -51 c-35 -68 -42 -121 -23 -159 28 -54 275 -263
310 -263 58 1 169 34 264 79 180 86 273 206 338 436 52 182 45 274 -40 543
-25 79 -48 167 -51 197 -8 64 -27 55 206 90 96 15 204 34 239 42 l65 16 -60
29 c-72 35 -92 54 -100 96 l-7 32 84 39 83 38 -31 17 c-35 18 -149 20 -283 5z"/>
<path d="M3826 10803 c-3 -4 -6 -15 -6 -26 0 -11 -20 -95 -45 -186 -49 -181
-66 -315 -85 -651 l-11 -185 32 -67 33 -68 24 22 c52 50 59 75 71 243 14 190
33 325 66 472 3 13 18 29 33 37 56 31 56 31 36 62 -16 23 -19 48 -19 139 0 98
-3 114 -23 148 -13 20 -25 37 -27 37 -1 0 -18 7 -38 15 -19 8 -37 11 -41 8z"/>
<path d="M3185 10736 c-41 -18 -83 -69 -89 -109 -3 -18 -7 -108 -10 -202 -6
-193 -43 -456 -71 -498 -9 -15 -48 -50 -86 -78 -81 -60 -118 -101 -126 -140
-5 -25 -10 -29 -37 -29 -37 0 -105 30 -128 56 -10 11 -24 36 -32 56 -10 23
-32 46 -67 68 l-51 34 7 135 c8 174 21 299 42 433 19 123 13 157 -38 228 l-31
43 -57 -6 c-31 -4 -71 -11 -88 -18 l-33 -11 0 -331 c0 -440 19 -687 57 -745 8
-13 45 -37 81 -54 167 -74 231 -107 320 -165 l95 -62 114 39 c63 22 119 37
124 34 5 -3 9 -22 9 -42 0 -51 37 -273 47 -282 4 -4 29 -19 54 -34 l46 -26 12
26 c20 45 29 147 20 225 -21 179 -22 193 -5 248 20 68 20 116 0 172 -25 72
-28 159 -10 326 9 87 20 196 25 243 5 47 26 137 46 200 41 129 40 163 -2 219
-22 29 -76 62 -100 61 -4 -1 -22 -7 -38 -14z"/>
<path d="M11990 8724 c-92 -20 -158 -48 -290 -123 -363 -206 -671 -433 -934
-690 -187 -184 -251 -278 -311 -454 -51 -152 -69 -383 -44 -564 18 -136 67
-181 274 -249 148 -50 334 -130 610 -264 372 -181 572 -260 807 -320 47 -12
119 -65 139 -101 8 -16 -1 -53 -42 -177 -70 -211 -186 -539 -309 -872 -56
-151 -156 -421 -222 -600 l-119 -325 0 -110 c1 -66 11 -174 26 -270 14 -88 32
-202 40 -254 8 -52 16 -95 18 -97 2 -2 31 10 65 26 78 40 138 106 232 256 51
82 107 153 178 229 59 61 136 157 177 220 103 155 227 389 281 530 76 197 112
275 168 359 100 151 133 232 207 497 66 240 100 330 166 441 109 182 117 206
178 523 71 367 97 468 201 800 138 436 244 832 244 908 0 21 -16 38 -82 85
-116 85 -523 295 -645 333 -319 99 -386 123 -449 161 -97 58 -163 87 -241 103
-85 18 -237 18 -323 -1z m684 -782 c103 -49 150 -99 143 -153 -8 -59 -33 -101
-129 -210 -50 -57 -146 -169 -213 -249 -195 -232 -282 -307 -448 -385 -112
-53 -216 -83 -317 -91 -135 -10 -184 39 -184 185 0 106 28 183 108 305 30 46
72 114 92 152 115 211 219 303 422 376 70 25 388 106 421 107 12 1 60 -16 105
-37z"/>
<path d="M7754 8585 c-98 -21 -149 -52 -311 -188 -56 -47 -135 -105 -175 -128
-228 -132 -425 -286 -623 -484 -351 -351 -441 -526 -433 -847 3 -124 5 -137
32 -190 38 -75 112 -157 186 -206 65 -44 62 -43 335 -138 104 -36 333 -122
510 -191 176 -69 405 -156 509 -194 250 -92 283 -113 306 -201 20 -73 21 -71
-518 -1523 -71 -192 -136 -375 -143 -405 -8 -30 -14 -102 -13 -160 0 -98 3
-111 37 -192 24 -58 45 -132 61 -224 16 -85 31 -143 42 -155 24 -27 77 -39
117 -28 57 15 77 47 93 145 30 191 35 215 53 258 27 61 79 116 186 196 118 89
141 114 223 250 75 126 281 504 318 584 13 28 44 130 69 226 58 220 89 293
177 422 97 140 121 196 162 383 122 542 154 648 255 839 95 179 110 223 128
356 17 132 46 288 97 510 50 216 68 344 69 490 1 149 -14 193 -89 264 -47 46
-165 112 -281 159 -35 14 -124 60 -199 103 -219 123 -286 150 -497 204 -105
26 -234 55 -286 64 -113 19 -312 20 -397 1z m786 -757 c66 -35 85 -66 85 -147
0 -59 -5 -76 -46 -158 -26 -50 -68 -124 -95 -164 -67 -101 -237 -270 -368
-367 -131 -97 -398 -259 -449 -273 -83 -23 -194 41 -212 120 -10 48 14 286 41
391 13 52 38 123 54 157 56 113 174 220 308 280 50 22 454 162 507 176 54 13
132 6 175 -15z"/>
<path d="M3725 8484 c-93 -23 -201 -80 -437 -232 -386 -249 -583 -399 -774
-587 -155 -154 -220 -238 -280 -361 -61 -124 -93 -258 -101 -414 -9 -205 20
-321 99 -398 21 -20 111 -68 234 -126 348 -163 603 -267 1052 -427 125 -44
275 -104 335 -132 121 -57 119 -53 92 -161 -9 -33 -60 -196 -115 -361 -54
-165 -141 -433 -194 -595 -93 -284 -141 -412 -259 -680 -30 -69 -62 -156 -72
-195 -21 -80 -23 -230 -6 -340 20 -122 95 -465 102 -463 4 2 46 57 94 123 121
167 174 226 360 410 l162 160 126 257 c69 142 168 329 220 416 173 290 201
356 302 712 70 246 120 393 215 630 103 254 137 367 195 648 97 462 138 605
253 872 86 201 105 263 122 386 12 94 2 160 -33 211 -28 41 -113 87 -652 352
-443 219 -564 271 -685 296 -89 19 -275 18 -355 -1z m670 -823 c61 -17 76 -26
118 -71 26 -28 47 -59 47 -67 0 -18 -131 -196 -243 -329 -107 -128 -308 -318
-415 -394 -177 -125 -401 -228 -469 -215 -71 13 -110 72 -139 210 -15 72 -15
73 11 131 15 33 45 104 67 159 67 168 117 254 188 325 133 134 342 239 535
270 83 12 216 4 300 -19z"/>
</g>
</svg>
